<svg width="57" height="14" viewBox="0 0 57 14" fill="none" xmlns="http://www.w3.org/2000/svg">
<path d="M0 1.21164C0 0.542469 0.542469 0 1.21164 0C1.88081 0 2.42328 0.542469 2.42328 1.21164V12.7884C2.42328 13.4575 1.88081 14 1.21164 14C0.542469 14 0 13.4575 0 12.7884V1.21164Z" fill="#F44D29"/>
<path d="M4.31431 5.8783C4.31431 5.20913 4.85678 4.66667 5.52595 4.66667C6.19512 4.66667 6.73759 5.20914 6.73759 5.87831V12.7884C6.73759 13.4575 6.19512 14 5.52595 14C4.85678 14 4.31431 13.4575 4.31431 12.7884V5.8783Z" fill="#F44D29"/>
<path d="M8.57672 2.66997C8.57672 2.0008 9.11919 1.45833 9.78836 1.45833C10.4575 1.45833 11 2.0008 11 2.66997L11 12.7884C11 13.4575 10.4575 14 9.78836 14C9.11919 14 8.57672 13.4575 8.57672 12.7884V2.66997Z" fill="#F44D29"/>
<path d="M20.1454 8.93496H18.3383V13.8103H15V0H20.4497C22.0919 0 23.3759 0.363595 24.3016 1.09079C25.2274 1.81798 25.6902 2.84553 25.6902 4.17344C25.6902 5.1346 25.4937 5.93135 25.1005 6.56369C24.7138 7.19603 24.1051 7.70822 23.2745 8.10027L26.1658 13.668V13.8103H22.5897L20.1454 8.93496ZM18.3383 6.3645H20.4497C21.0838 6.3645 21.5593 6.20009 21.8764 5.87127C22.1997 5.53613 22.3614 5.07136 22.3614 4.47696C22.3614 3.88257 22.1997 3.4178 21.8764 3.08266C21.553 2.74119 21.0774 2.57046 20.4497 2.57046H18.3383V6.3645Z" fill="#F44D29"/>
<path d="M33.356 13.8103C33.2418 13.6016 33.1404 13.2949 33.0516 12.8902C32.462 13.6301 31.6377 14 30.5788 14C29.6087 14 28.7844 13.7091 28.106 13.1274C27.4275 12.5393 27.0883 11.8026 27.0883 10.9173C27.0883 9.80443 27.5005 8.96342 28.3247 8.39431C29.149 7.8252 30.3474 7.54065 31.9198 7.54065H32.909V7C32.909 6.05781 32.5 5.58672 31.6821 5.58672C30.9212 5.58672 30.5408 5.9598 30.5408 6.70596H27.3356C27.3356 5.71319 27.7572 4.90696 28.6005 4.28726C29.4502 3.66757 30.5312 3.35772 31.8438 3.35772C33.1562 3.35772 34.1929 3.67706 34.9538 4.31572C35.7147 4.95438 36.1046 5.83017 36.1236 6.94309V11.4865C36.1363 12.4286 36.2822 13.1495 36.5611 13.6491V13.8103H33.356ZM31.3492 11.7236C31.7486 11.7236 32.0784 11.6382 32.3383 11.4675C32.6046 11.2967 32.7948 11.1039 32.909 10.8889V9.24797H31.9769C30.861 9.24797 30.303 9.74752 30.303 10.7466C30.303 11.0375 30.4013 11.2746 30.5978 11.458C30.7944 11.635 31.0448 11.7236 31.3492 11.7236Z" fill="#F44D29"/>
<path d="M41.8587 10.0068L43.4851 3.54743H46.8614L43.5041 13.8103H40.2323L36.875 3.54743H40.2609L41.8587 10.0068Z" fill="#F44D29"/>
<path d="M52.663 14C51.0842 14 49.8066 13.5321 48.8302 12.5962C47.8537 11.654 47.3655 10.4304 47.3655 8.92548V8.65989C47.3655 7.61021 47.5589 6.68383 47.9457 5.88076C48.3388 5.07769 48.9094 4.45799 49.6576 4.02168C50.4058 3.57904 51.2935 3.35772 52.3207 3.35772C53.7663 3.35772 54.9076 3.80668 55.7446 4.70461C56.5815 5.59621 57 6.84192 57 8.44174V9.68428H50.6277C50.7418 10.2597 50.9923 10.7118 51.3791 11.0407C51.7659 11.3695 52.2668 11.5339 52.8818 11.5339C53.8963 11.5339 54.6889 11.1798 55.2595 10.4715L56.7242 12.1978C56.3247 12.748 55.7572 13.1874 55.0217 13.5163C54.2926 13.8388 53.5063 14 52.663 14ZM52.3016 5.82385C51.3632 5.82385 50.8053 6.44354 50.6277 7.68293H53.8614V7.43631C53.8741 6.92412 53.7441 6.52891 53.4715 6.25068C53.1988 5.96613 52.8089 5.82385 52.3016 5.82385Z" fill="#F44D29"/>
</svg>
